<mxfile host="app.diagrams.net" modified="2023-11-09T10:08:29.978Z" agent="Mozilla/5.0 (Windows NT 10.0; Win64; x64) AppleWebKit/537.36 (KHTML, like Gecko) Chrome/119.0.0.0 Safari/537.36 Edg/119.0.0.0" etag="u57Jn92Z1nYJtxVyVYpE" version="22.1.0" type="github">
  <diagram name="Page-1" id="L8ywXLko2E61PjNHKpQ9">
    <mxGraphModel dx="1386" dy="785" grid="1" gridSize="10" guides="1" tooltips="1" connect="1" arrows="1" fold="1" page="1" pageScale="1" pageWidth="827" pageHeight="1169" math="0" shadow="0">
      <root>
        <mxCell id="0" />
        <mxCell id="1" parent="0" />
        <mxCell id="gWm23wUfBIiPYAw_ZWsT-1" value="" style="rounded=0;html=1;jettySize=auto;orthogonalLoop=1;fontSize=11;endArrow=block;endFill=0;endSize=8;strokeWidth=1;shadow=0;labelBackgroundColor=none;edgeStyle=orthogonalEdgeStyle;" edge="1" parent="1" source="gWm23wUfBIiPYAw_ZWsT-2" target="gWm23wUfBIiPYAw_ZWsT-5">
          <mxGeometry relative="1" as="geometry">
            <mxPoint x="220" y="170" as="targetPoint" />
          </mxGeometry>
        </mxCell>
        <mxCell id="gWm23wUfBIiPYAw_ZWsT-2" value="1 - Détection de Vulnérabilité Exploitée" style="rounded=1;whiteSpace=wrap;html=1;fontSize=12;glass=0;strokeWidth=1;shadow=0;" vertex="1" parent="1">
          <mxGeometry x="160" y="60" width="170" height="50" as="geometry" />
        </mxCell>
        <mxCell id="gWm23wUfBIiPYAw_ZWsT-3" value="Départ" style="ellipse;whiteSpace=wrap;html=1;" vertex="1" parent="1">
          <mxGeometry x="20" y="20" width="120" height="50" as="geometry" />
        </mxCell>
        <mxCell id="gWm23wUfBIiPYAw_ZWsT-4" value="" style="endArrow=classic;html=1;rounded=0;entryX=0.5;entryY=0;entryDx=0;entryDy=0;" edge="1" parent="1" target="gWm23wUfBIiPYAw_ZWsT-2">
          <mxGeometry width="50" height="50" relative="1" as="geometry">
            <mxPoint x="140" y="40" as="sourcePoint" />
            <mxPoint x="440" y="140" as="targetPoint" />
            <Array as="points">
              <mxPoint x="245" y="40" />
            </Array>
          </mxGeometry>
        </mxCell>
        <mxCell id="gWm23wUfBIiPYAw_ZWsT-5" value="2 - Collecte de données" style="rounded=1;whiteSpace=wrap;html=1;" vertex="1" parent="1">
          <mxGeometry x="247.5" y="150" width="245" height="110" as="geometry" />
        </mxCell>
        <mxCell id="gWm23wUfBIiPYAw_ZWsT-6" value="3&amp;nbsp;- Triage" style="rounded=1;whiteSpace=wrap;html=1;" vertex="1" parent="1">
          <mxGeometry x="310" y="320" width="120" height="60" as="geometry" />
        </mxCell>
        <mxCell id="gWm23wUfBIiPYAw_ZWsT-7" value="4 - Evaluation" style="rounded=1;whiteSpace=wrap;html=1;" vertex="1" parent="1">
          <mxGeometry x="310" y="470" width="120" height="60" as="geometry" />
        </mxCell>
        <mxCell id="gWm23wUfBIiPYAw_ZWsT-8" value="" style="endArrow=classic;html=1;rounded=0;exitX=0.5;exitY=1;exitDx=0;exitDy=0;entryX=0.5;entryY=0;entryDx=0;entryDy=0;" edge="1" parent="1" source="gWm23wUfBIiPYAw_ZWsT-6" target="gWm23wUfBIiPYAw_ZWsT-7">
          <mxGeometry width="50" height="50" relative="1" as="geometry">
            <mxPoint x="390" y="550" as="sourcePoint" />
            <mxPoint x="440" y="500" as="targetPoint" />
          </mxGeometry>
        </mxCell>
        <mxCell id="gWm23wUfBIiPYAw_ZWsT-9" value="Résultat de l&#39;évaluation" style="rhombus;whiteSpace=wrap;html=1;shadow=0;fontFamily=Helvetica;fontSize=12;align=center;strokeWidth=1;spacing=6;spacingTop=-4;" vertex="1" parent="1">
          <mxGeometry x="260" y="610" width="220" height="80" as="geometry" />
        </mxCell>
        <mxCell id="gWm23wUfBIiPYAw_ZWsT-10" value="Exclusion et Cloture" style="ellipse;whiteSpace=wrap;html=1;shadow=0;strokeWidth=1;spacing=6;spacingTop=-4;" vertex="1" parent="1">
          <mxGeometry x="590" y="630" width="150" height="40" as="geometry" />
        </mxCell>
        <mxCell id="gWm23wUfBIiPYAw_ZWsT-11" value="" style="endArrow=classic;html=1;rounded=0;exitX=1;exitY=0.5;exitDx=0;exitDy=0;entryX=0;entryY=0.5;entryDx=0;entryDy=0;" edge="1" parent="1" source="gWm23wUfBIiPYAw_ZWsT-9" target="gWm23wUfBIiPYAw_ZWsT-10">
          <mxGeometry relative="1" as="geometry">
            <mxPoint x="360" y="770" as="sourcePoint" />
            <mxPoint x="460" y="770" as="targetPoint" />
          </mxGeometry>
        </mxCell>
        <mxCell id="gWm23wUfBIiPYAw_ZWsT-12" value="Faux Positif" style="edgeLabel;resizable=0;html=1;align=center;verticalAlign=middle;" connectable="0" vertex="1" parent="gWm23wUfBIiPYAw_ZWsT-11">
          <mxGeometry relative="1" as="geometry" />
        </mxCell>
        <mxCell id="gWm23wUfBIiPYAw_ZWsT-13" value="" style="endArrow=classic;html=1;rounded=0;exitX=0.5;exitY=1;exitDx=0;exitDy=0;entryX=0.5;entryY=0;entryDx=0;entryDy=0;" edge="1" parent="1" source="gWm23wUfBIiPYAw_ZWsT-7" target="gWm23wUfBIiPYAw_ZWsT-9">
          <mxGeometry width="50" height="50" relative="1" as="geometry">
            <mxPoint x="390" y="790" as="sourcePoint" />
            <mxPoint x="440" y="740" as="targetPoint" />
          </mxGeometry>
        </mxCell>
        <mxCell id="gWm23wUfBIiPYAw_ZWsT-14" value="" style="endArrow=classic;html=1;rounded=0;exitX=0.5;exitY=1;exitDx=0;exitDy=0;entryX=0.5;entryY=0;entryDx=0;entryDy=0;" edge="1" parent="1" source="gWm23wUfBIiPYAw_ZWsT-9" target="gWm23wUfBIiPYAw_ZWsT-16">
          <mxGeometry relative="1" as="geometry">
            <mxPoint x="360" y="770" as="sourcePoint" />
            <mxPoint x="370" y="880" as="targetPoint" />
          </mxGeometry>
        </mxCell>
        <mxCell id="gWm23wUfBIiPYAw_ZWsT-15" value="Vrai Positif" style="edgeLabel;resizable=0;html=1;align=center;verticalAlign=middle;" connectable="0" vertex="1" parent="gWm23wUfBIiPYAw_ZWsT-14">
          <mxGeometry relative="1" as="geometry" />
        </mxCell>
        <mxCell id="gWm23wUfBIiPYAw_ZWsT-16" value="Escalade" style="ellipse;whiteSpace=wrap;html=1;" vertex="1" parent="1">
          <mxGeometry x="275" y="780" width="190" height="60" as="geometry" />
        </mxCell>
        <mxCell id="gWm23wUfBIiPYAw_ZWsT-17" value="" style="endArrow=classic;html=1;rounded=0;exitX=0.5;exitY=1;exitDx=0;exitDy=0;entryX=0.5;entryY=0;entryDx=0;entryDy=0;" edge="1" parent="1" source="gWm23wUfBIiPYAw_ZWsT-5" target="gWm23wUfBIiPYAw_ZWsT-6">
          <mxGeometry width="50" height="50" relative="1" as="geometry">
            <mxPoint x="390" y="430" as="sourcePoint" />
            <mxPoint x="440" y="380" as="targetPoint" />
          </mxGeometry>
        </mxCell>
      </root>
    </mxGraphModel>
  </diagram>
</mxfile>
